<svg width="92" height="92" viewBox="0 0 92 92" fill="none" xmlns="http://www.w3.org/2000/svg">
<g filter="url(#filter0_d_1_1346)">
<circle cx="45.7141" cy="40.6007" r="25.2615" fill="#052A44"/>
</g>
<g clip-path="url(#clip0_1_1346)">
<path d="M50.1348 40.6008H41.7985V43.5059H50.1348V40.6008ZM53.999 33.7467L49.7484 29.2983C49.553 29.094 49.2881 28.9805 49.0103 28.9805H48.7454V34.7907H54.3029V34.5138C54.3029 34.2278 54.1944 33.9509 53.999 33.7467ZM47.356 35.1538V28.9805H38.6724C38.0949 28.9805 37.6304 29.4662 37.6304 30.0699V51.1317C37.6304 51.7354 38.0949 52.2211 38.6724 52.2211H53.2609C53.8384 52.2211 54.3029 51.7354 54.3029 51.1317V36.2432H48.3981C47.8249 36.2432 47.356 35.753 47.356 35.1538ZM40.4091 32.2487C40.4091 32.0481 40.5646 31.8856 40.7565 31.8856H44.2299C44.4218 31.8856 44.5773 32.0481 44.5773 32.2487V32.975C44.5773 33.1756 44.4218 33.3381 44.2299 33.3381H40.7565C40.5646 33.3381 40.4091 33.1756 40.4091 32.975V32.2487ZM40.4091 35.1538C40.4091 34.9532 40.5646 34.7907 40.7565 34.7907H44.2299C44.4218 34.7907 44.5773 34.9532 44.5773 35.1538V35.8801C44.5773 36.0807 44.4218 36.2432 44.2299 36.2432H40.7565C40.5646 36.2432 40.4091 36.0807 40.4091 35.8801V35.1538ZM51.5242 48.9529C51.5242 49.1535 51.3687 49.316 51.1768 49.316H47.7034C47.5115 49.316 47.356 49.1535 47.356 48.9529V48.2266C47.356 48.026 47.5115 47.8635 47.7034 47.8635H51.1768C51.3687 47.8635 51.5242 48.026 51.5242 48.2266V48.9529ZM51.5242 39.8745V44.2321C51.5242 44.6334 51.2133 44.9584 50.8295 44.9584H41.1038C40.72 44.9584 40.4091 44.6334 40.4091 44.2321V39.8745C40.4091 39.4733 40.72 39.1483 41.1038 39.1483H50.8295C51.2133 39.1483 51.5242 39.4733 51.5242 39.8745Z" fill="white"/>
</g>
<defs>
<filter id="filter0_d_1_1346" x="0.000232697" y="-8.58307e-06" width="91.4278" height="91.4277" filterUnits="userSpaceOnUse" color-interpolation-filters="sRGB">
<feFlood flood-opacity="0" result="BackgroundImageFix"/>
<feColorMatrix in="SourceAlpha" type="matrix" values="0 0 0 0 0 0 0 0 0 0 0 0 0 0 0 0 0 0 127 0" result="hardAlpha"/>
<feOffset dy="5.1131"/>
<feGaussianBlur stdDeviation="10.2262"/>
<feColorMatrix type="matrix" values="0 0 0 0 0.212 0 0 0 0 0.238778 0 0 0 0 0.533333 0 0 0 0.06 0"/>
<feBlend mode="normal" in2="BackgroundImageFix" result="effect1_dropShadow_1_1346"/>
<feBlend mode="normal" in="SourceGraphic" in2="effect1_dropShadow_1_1346" result="shape"/>
</filter>
<clipPath id="clip0_1_1346">
<rect width="16.6726" height="23.2405" fill="white" transform="translate(37.6304 28.9805)"/>
</clipPath>
</defs>
</svg>
